<svg width="32" height="32" viewBox="0 0 32 32" xmlns="http://www.w3.org/2000/svg">
  <!-- Eagle/Bird Symbol for favicon -->
  <g transform="translate(16, 10)">
    <!-- Outer wings -->
    <path d="M -8 2 L -5 -1 L -2 1 L 0 0 L 2 1 L 5 -1 L 8 2 L 5 4 L 2 5 L 0 3 L -2 5 L -5 4 Z" 
          fill="#2d2d2d" stroke="none"/>
    
    <!-- Inner red wings -->
    <path d="M -6 2.5 L -4 0.5 L -1.5 1.5 L 0 1 L 1.5 1.5 L 4 0.5 L 6 2.5 L 4 3.5 L 1.5 4 L 0 2.5 L -1.5 4 L -4 3.5 Z" 
          fill="#dc2626" stroke="none"/>
    
    <!-- Center diamond -->
    <path d="M 0 3 L 1 5 L 0 7 L -1 5 Z" 
          fill="#2d2d2d" stroke="none"/>
    
    <!-- Small red diamond -->
    <circle cx="0" cy="5" r="0.8" fill="#dc2626"/>
  </g>
  
  <!-- Small MONTRA text -->
  <text x="16" y="26" 
        font-family="Arial Black, sans-serif" 
        font-size="6" 
        font-weight="900" 
        text-anchor="middle" 
        fill="#2d2d2d">MONTRA</text>
</svg>
